<svg xmlns="http://www.w3.org/2000/svg" version="1.1" xmlns:xlink="http://www.w3.org/1999/xlink" xmlns:svgjs="http://svgjs.dev/svgjs" width="1500" height="1500" viewBox="0 0 1500 1500"><rect width="1500" height="1500" fill="#000000"></rect><g transform="matrix(0.6666666666666666,0,0,0.6666666666666666,249.39393939393938,550.3516173429401)"><svg viewBox="0 0 396 158" data-background-color="#ffffff" preserveAspectRatio="xMidYMid meet" height="598" width="1500" xmlns="http://www.w3.org/2000/svg" xmlns:xlink="http://www.w3.org/1999/xlink"><g id="tight-bounds" transform="matrix(1,0,0,1,0.2400000000000091,0.12486068515583781)"><svg viewBox="0 0 395.52 157.75027862968832" height="157.75027862968832" width="395.52"><g><svg viewBox="0 0 609.4816044911564 243.08731019455254" height="157.75027862968832" width="395.52"><g transform="matrix(1,0,0,1,213.96160449115644,75.11750723735409)"><svg viewBox="0 0 395.52 92.85229571984436" height="92.85229571984436" width="395.52"><g id="textblocktransform"><svg viewBox="0 0 395.52 92.85229571984436" height="92.85229571984436" width="395.52" id="textblock"><g><svg viewBox="0 0 395.52 92.85229571984436" height="92.85229571984436" width="395.52"><g transform="matrix(1,0,0,1,0,0)"><svg width="395.52" viewBox="4.5 -35.6 154.19 36.2" height="92.85229571984436" data-palette-color="#505050"><path d="M13.7 0.4L13.7 0.4Q10.85 0.4 8.72 0.25 6.6 0.1 4.5-0.1L4.5-0.1 4.5-34.9Q6.85-35.15 9.1-35.27 11.35-35.4 14.25-35.4L14.25-35.4Q18.75-35.4 22.03-34 25.3-32.6 27.43-30.15 29.55-27.7 30.58-24.48 31.6-21.25 31.6-17.55L31.6-17.55Q31.6-13.9 30.55-10.65 29.5-7.4 27.33-4.93 25.15-2.45 21.78-1.03 18.4 0.4 13.7 0.4ZM13.85-3.75L13.85-3.75Q18.35-3.75 21.2-5.5 24.05-7.25 25.4-10.38 26.75-13.5 26.75-17.55L26.75-17.55Q26.75-21.15 25.4-24.3 24.05-27.45 21.25-29.38 18.45-31.3 14.1-31.3L14.1-31.3Q12.65-31.3 11.45-31.23 10.25-31.15 9.25-31.05L9.25-31.05 9.25-4Q10.3-3.85 11.45-3.8 12.6-3.75 13.85-3.75ZM57.6-15.1L40.6-15.1 40.6-19.2 57.6-19.2 57.6-15.1ZM77.05 0.6L77.05 0.6Q73.8 0.6 71.39-0.28 69-1.15 67.3-2.4L67.3-2.4 69.34-6.15Q70.75-5.1 72.59-4.3 74.44-3.5 77.09-3.5L77.09-3.5Q80.39-3.5 82.32-5.25 84.25-7 84.25-9.6L84.25-9.6Q84.25-11.45 83.25-12.98 82.25-14.5 80.17-15.45 78.09-16.4 74.8-16.4L74.8-16.4 72-16.4 72-20.05 74.59-20.05Q77.55-20.05 79.47-20.95 81.39-21.85 82.34-23.3 83.3-24.75 83.3-26.35L83.3-26.35Q83.3-28.7 81.52-30.15 79.75-31.6 77.14-31.6L77.14-31.6Q74.8-31.6 72.97-30.83 71.14-30.05 70-29.1L70-29.1 68.14-32.65Q69.64-33.65 72-34.63 74.34-35.6 77.5-35.6L77.5-35.6Q80.8-35.6 83.09-34.4 85.39-33.2 86.62-31.23 87.84-29.25 87.84-26.95L87.84-26.95Q87.84-24 86.37-22 84.89-20 82.19-18.7L82.19-18.7Q85.34-17.5 87.12-15.18 88.89-12.85 88.89-9.75L88.89-9.75Q88.89-7.15 87.62-4.78 86.34-2.4 83.72-0.9 81.09 0.6 77.05 0.6ZM103.34 0L98.59 0 98.59-34.9Q100.64-35.15 103.12-35.27 105.59-35.4 108.24-35.4L108.24-35.4Q112.59-35.4 115.64-34.02 118.69-32.65 120.29-30.25 121.89-27.85 121.89-24.75L121.89-24.75Q121.89-21 120.04-18.4 118.19-15.8 114.89-14.43 111.59-13.05 107.24-13.05L107.24-13.05Q105.14-13.05 103.34-13.2L103.34-13.2 103.34 0ZM107.84-17L107.84-17Q112.29-17 114.74-19 117.19-21 117.19-24.35L117.19-24.35Q117.19-27.6 114.84-29.5 112.49-31.4 108.14-31.4L108.14-31.4Q106.79-31.4 105.59-31.35 104.39-31.3 103.34-31.2L103.34-31.2 103.34-17.25Q104.14-17.15 105.29-17.07 106.44-17 107.84-17ZM142.14 0.6L142.14 0.6Q138.24 0.6 135.19-0.83 132.14-2.25 130.01-4.73 127.89-7.2 126.77-10.5 125.64-13.8 125.64-17.55L125.64-17.55Q125.64-22.7 127.61-26.78 129.59-30.85 133.29-33.23 136.99-35.6 142.14-35.6L142.14-35.6Q145.99-35.6 149.06-34.2 152.14-32.8 154.29-30.3 156.44-27.8 157.56-24.55 158.69-21.3 158.69-17.55L158.69-17.55Q158.69-13.8 157.56-10.5 156.44-7.2 154.29-4.73 152.14-2.25 149.09-0.83 146.04 0.6 142.14 0.6ZM142.14-3.5L142.14-3.5Q145.99-3.5 148.59-5.35 151.19-7.2 152.51-10.38 153.84-13.55 153.84-17.55L153.84-17.55Q153.84-20.25 153.04-22.75 152.24-25.25 150.74-27.23 149.24-29.2 147.06-30.35 144.89-31.5 142.14-31.5L142.14-31.5Q138.49-31.5 135.87-29.65 133.24-27.8 131.87-24.65 130.49-21.5 130.49-17.55L130.49-17.55Q130.49-14.85 131.26-12.33 132.04-9.8 133.54-7.8 135.04-5.8 137.22-4.65 139.39-3.5 142.14-3.5Z" opacity="1" transform="matrix(1,0,0,1,0,0)" fill="#ffffff" class="wordmark-text-0" data-fill-palette-color="primary" id="text-0"></path></svg></g></svg></g></svg></g></svg></g><g><svg viewBox="0 0 192.04140592679846 243.08731019455254" height="243.08731019455254" width="192.04140592679846"><g><svg version="1.1" xmlns="http://www.w3.org/2000/svg" xmlns:xlink="http://www.w3.org/1999/xlink" x="0" y="0" viewBox="0 0 79.001 100" enable-background="new 0 0 79.001 100" xml:space="preserve" id="icon-0" width="192.04140592679846" height="243.08731019455254" class="icon-icon-0" data-fill-palette-color="accent"><path d="M56.2 0H0V100H79L79.001 21.715zM58.001 10.001L68.5 20H58.001zM6 94V6H52.001V26H73.001L73 94z" fill="#ffffff" data-fill-palette-color="accent"></path></svg></g></svg></g></svg></g><defs></defs></svg><rect width="395.52" height="157.75027862968832" fill="none" stroke="none" visibility="hidden"></rect></g></svg></g></svg>