<svg xmlns="http://www.w3.org/2000/svg" version="1.1" xmlns:xlink="http://www.w3.org/1999/xlink" xmlns:svgjs="http://svgjs.dev/svgjs" width="1500" height="1500" viewBox="0 0 1500 1500"><rect width="1500" height="1500" fill="#000000"></rect><g transform="matrix(0.6666666666666666,0,0,0.6666666666666666,249.39393939393932,580.829754630351)"><svg viewBox="0 0 396 134" data-background-color="#000000" preserveAspectRatio="xMidYMid meet" height="507" width="1500" xmlns="http://www.w3.org/2000/svg" xmlns:xlink="http://www.w3.org/1999/xlink"><g id="tight-bounds" transform="matrix(1,0,0,1,0.24000000000003752,0.06749372642889284)"><svg viewBox="0 0 395.5199999999999 133.8650125471422" height="133.8650125471422" width="395.5199999999999"><g><svg viewBox="0 0 669.9839650528977 226.75822180468808" height="133.8650125471422" width="395.5199999999999"><g transform="matrix(1,0,0,1,274.46396505289766,62.85963491981129)"><svg viewBox="0 0 395.52 101.0389519650655" height="101.0389519650655" width="395.52"><g id="textblocktransform"><svg viewBox="0 0 395.52 101.0389519650655" height="101.0389519650655" width="395.52" id="textblock"><g><svg viewBox="0 0 395.52 101.0389519650655" height="101.0389519650655" width="395.52"><g transform="matrix(1,0,0,1,0,0)"><svg width="395.52" viewBox="4.38 -31.88 127.21000000000001 32.51" height="101.0389519650655" data-palette-color="#853bce"><g class="wordmark-text-0" data-fill-palette-color="primary" id="text-0"><path d="M14.62 0L4.38 0 4.38-31.25 14.62-31.25Q18.85-31.25 22-29.86 25.14-28.47 27.19-26.18 29.24-23.89 30.24-21.13 31.25-18.37 31.25-15.63L31.25-15.63Q31.25-12.88 30.24-10.12 29.24-7.36 27.19-5.07 25.14-2.78 22-1.39 18.85 0 14.62 0L14.62 0ZM8.33-27.71L8.33-3.54 14.2-3.54Q17.81-3.54 20.28-4.67 22.74-5.8 24.27-7.62 25.8-9.44 26.48-11.56 27.15-13.68 27.15-15.63L27.15-15.63Q27.15-17.57 26.48-19.69 25.8-21.81 24.27-23.63 22.74-25.45 20.28-26.58 17.81-27.71 14.2-27.71L14.2-27.71 8.33-27.71ZM44.79-8.75L34.37-8.75 34.37-12.08 44.79-12.08 44.79-8.75ZM57.7 0.42L57.7 0.42Q54.72 0.42 52.23-0.97 49.75-2.36 48.33-4.79L48.33-4.79 50.62-9.34Q51-6.67 53-4.9 55-3.13 57.7-3.13L57.7-3.13Q59.68-3.13 61.3-4.08 62.91-5.03 63.85-6.63 64.79-8.23 64.79-10.21L64.79-10.21Q64.79-12.15 63.83-13.77 62.88-15.38 61.28-16.34 59.68-17.29 57.7-17.29L57.7-17.29Q56.73-17.29 55.88-17.05 55.03-16.81 54.34-16.42L54.34-16.42 60.27-27.92 50.62-27.92 50.62-31.25 66.04-31.25 60.17-20.31Q62.5-19.86 64.39-18.44 66.28-17.01 67.41-14.91 68.54-12.81 68.54-10.21L68.54-10.21Q68.54-7.22 67.08-4.81 65.62-2.4 63.15-0.99 60.69 0.42 57.7 0.42ZM80.2 0L76.24 0 76.24-31.25 83.99-31.25Q87.08-31.25 89.21-30.31 91.35-29.38 92.67-27.86 93.99-26.35 94.59-24.58 95.2-22.81 95.2-21.11L95.2-21.11Q95.2-19.44 94.61-17.67 94.02-15.9 92.7-14.38 91.38-12.85 89.23-11.91 87.08-10.97 83.99-10.97L83.99-10.97 80.2-10.97 80.2 0ZM80.2-27.71L80.2-14.51 83.78-14.51Q86.59-14.51 88.22-15.5 89.85-16.49 90.55-18 91.24-19.51 91.24-21.11L91.24-21.11Q91.24-22.64 90.57-24.17 89.89-25.69 88.27-26.7 86.66-27.71 83.78-27.71L83.78-27.71 80.2-27.71ZM115.27 0.63L115.27 0.63Q111.9 0.63 108.93-0.64 105.96-1.91 103.72-4.13 101.48-6.35 100.22-9.31 98.95-12.26 98.95-15.63L98.95-15.63Q98.95-18.99 100.22-21.94 101.48-24.9 103.72-27.12 105.96-29.34 108.93-30.61 111.9-31.88 115.27-31.88L115.27-31.88Q118.67-31.88 121.62-30.61 124.57-29.34 126.81-27.12 129.05-24.9 130.32-21.94 131.59-18.99 131.59-15.63L131.59-15.63Q131.59-12.26 130.32-9.31 129.05-6.35 126.81-4.13 124.57-1.91 121.62-0.64 118.67 0.63 115.27 0.63ZM115.27-3.13L115.27-3.13Q118.71-3.13 121.48-4.81 124.26-6.49 125.88-9.34 127.49-12.19 127.49-15.63L127.49-15.63Q127.49-19.1 125.88-21.93 124.26-24.76 121.48-26.44 118.71-28.13 115.27-28.13L115.27-28.13Q111.83-28.13 109.07-26.44 106.31-24.76 104.68-21.93 103.05-19.1 103.05-15.63L103.05-15.63Q103.05-12.19 104.68-9.34 106.31-6.49 109.07-4.81 111.83-3.13 115.27-3.13Z" fill="#ffffff" data-fill-palette-color="primary"></path></g></svg></g></svg></g></svg></g></svg></g><g><svg viewBox="0 0 226.75822180468808 226.75822180468808" height="226.75822180468808" width="226.75822180468808"><g><svg></svg></g><g id="icon-0"><svg viewBox="0 0 226.75822180468808 226.75822180468808" height="226.75822180468808" width="226.75822180468808"><g><path d="M0 113.379c0-62.618 50.762-113.379 113.379-113.379 62.618 0 113.379 50.762 113.379 113.379 0 62.618-50.762 113.379-113.379 113.379-62.618 0-113.379-50.762-113.379-113.379zM113.379 217.646c57.585 0 104.267-46.682 104.267-104.267 0-57.585-46.682-104.267-104.267-104.267-57.585 0-104.267 46.682-104.267 104.267 0 57.585 46.682 104.267 104.267 104.267z" data-fill-palette-color="accent" fill="#ffffff" stroke="transparent"></path></g><g transform="matrix(1,0,0,1,59.99382446583902,48.29293976742696)"><svg viewBox="0 0 106.77057287301004 130.17234226983416" height="130.17234226983416" width="106.77057287301004"><g><svg xmlns="http://www.w3.org/2000/svg" xmlns:xlink="http://www.w3.org/1999/xlink" version="1.1" x="0" y="0" viewBox="13 5 73 89" enable-background="new 0 0 100 100" xml:space="preserve" height="130.17234226983416" width="106.77057287301004" class="icon-dxe-0" data-fill-palette-color="accent" id="dxe-0"><path fill="#ffffff" d="M65.892 5H35V78H86V26.763zM65 9.498L80.51 26H65zM39 74V9H61V30H83V74z" data-fill-palette-color="accent"></path><rect x="45.624" y="23.001" fill="#ffffff" width="17.475" height="3.469" data-fill-palette-color="accent"></rect><rect x="45.624" y="32.975" fill="#ffffff" width="30.288" height="3.469" data-fill-palette-color="accent"></rect><rect x="45.624" y="42.948" fill="#ffffff" width="30.288" height="3.469" data-fill-palette-color="accent"></rect><rect x="45.624" y="52.922" fill="#ffffff" width="30.288" height="3.47" data-fill-palette-color="accent"></rect><rect x="45.624" y="62.896" fill="#ffffff" width="30.288" height="3.469" data-fill-palette-color="accent"></rect><rect x="45.624" y="23.001" fill="#ffffff" width="17.475" height="3.469" data-fill-palette-color="accent"></rect><polygon fill="#ffffff" points="72,78 72,83 28,83 28,17 35,17 35,14 24,14 24,86 75,86 75,78 " data-fill-palette-color="accent"></polygon><polygon fill="#ffffff" points="61,86 61,91 17,91 17,25 24,25 24,22 13,22 13,94 64,94 64,86 " data-fill-palette-color="accent"></polygon></svg></g></svg></g></svg></g></svg></g></svg></g><defs></defs></svg><rect width="395.5199999999999" height="133.8650125471422" fill="none" stroke="none" visibility="hidden"></rect></g></svg></g></svg>